<svg width="756" height="120" viewBox="0 0 756 120" fill="none" xmlns="http://www.w3.org/2000/svg">
<g opacity="0.7">
<mask id="mask0" mask-type="alpha" maskUnits="userSpaceOnUse" x="0" y="0" width="756" height="120">
<rect width="756" height="120" rx="6" fill="#02C7C7"/>
</mask>
<g mask="url(#mask0)">
<mask id="mask1" mask-type="alpha" maskUnits="userSpaceOnUse" x="0" y="0" width="1667" height="265">
<rect width="1666.29" height="264.8" fill="#C4C4C4"/>
</mask>
<g mask="url(#mask1)">
<path opacity="0.2" d="M548.834 82.561C598.885 64.3393 737.266 82.5598 760.229 177.588L809.518 447.119L207.577 469.774C79.2892 437.507 -152.26 372.212 -52.158 369.175C72.9696 365.379 36.948 268.576 135.533 215.429C214.402 172.912 256.007 227.64 279.62 249.595C306.159 274.27 373.655 357.787 431.29 327.417C488.924 297.048 471.1 202.143 482.478 156.588C490.059 130.015 498.783 100.783 548.834 82.561Z" fill="#02B3B3"/>
<path opacity="0.2" d="M263.879 10.4369C210.794 -21.4512 198.152 -42.0772 220.271 -69.2832L780.507 -62.7767L795.674 39.7205C794.41 70.7228 735.062 155.571 663.483 162.285C622.084 166.168 591.44 141.406 568.689 107.24C553.632 84.6275 545.067 63.2195 516.026 50.2969L515.644 50.127C498.65 42.5638 477.643 33.214 415.544 33.214C362.46 29.4178 316.963 42.3249 263.879 10.4369Z" fill="#33E8E8"/>
<path opacity="0.2" d="M134.056 278.067C168.184 297.048 179.557 360.317 162.494 382.462L-44.1563 393.85L-47.948 86.3588C-47.948 86.3588 30.0855 25.6213 71.492 65.4797C112.899 105.338 65.4226 148.616 63.9059 177.467C62.01 213.531 85.8793 251.273 134.056 278.067Z" fill="#03D6D6"/>
<path opacity="0.2" d="M36.9437 128.116C-16.1408 102.302 -33.678 8.53633 -14.7193 -33.2218L-5.23994 -88.2666L558.311 -82.5723L760.408 1.10339C736.393 6.79768 673.806 30.8934 566.449 30.8934C500.326 30.8934 455.934 84.4602 435.08 118.626C414.225 152.792 384.31 179.365 355.872 181.263C316.874 183.866 295.204 179.365 270.558 147.097C245.912 114.83 228.849 107.237 196.619 105.339C173.114 103.955 144.379 114.83 126.053 133.811C118.722 141.403 90.0281 153.931 36.9437 128.116Z" fill="#02B3B3"/>
<path opacity="0.2" d="M310.371 112.932C336.917 137.606 407.061 133.811 427.916 71.1737C448.77 8.53647 374.411 -73.0817 374.411 -73.0817H186.72L-55.9506 -67.3874C-88.8124 -34.4871 -153.781 43.4615 -74.9123 114.83C23.6731 204.04 78.8601 176.9 84.3425 173.671C116.572 154.69 145.43 128.117 154.91 92.0527C164.389 55.9889 206.098 38.906 249.703 55.9889C272.478 64.9111 283.826 88.2572 310.371 112.932Z" fill="#33E8E8"/>
</g>
</g>
</g>
</svg>
