<svg width="756" height="138" viewBox="0 0 756 138" fill="none" xmlns="http://www.w3.org/2000/svg">
<g opacity="0.6">
<mask id="mask0" mask-type="alpha" maskUnits="userSpaceOnUse" x="0" y="0" width="756" height="138">
<rect width="756" height="138" rx="6" fill="#C4C4C4"/>
</mask>
<g mask="url(#mask0)">
<path opacity="0.2" d="M548.835 106.464C598.886 88.264 737.267 106.463 760.23 201.38L809.519 470.595L207.577 493.224C79.2901 460.994 -152.259 395.776 -52.1572 392.743C72.9705 388.951 36.9489 292.262 135.534 239.177C214.403 196.71 256.007 251.374 279.621 273.303C306.16 297.949 373.656 381.368 431.29 351.034C488.925 320.7 471.101 225.906 482.479 180.405C490.06 153.863 498.784 124.665 548.835 106.464Z" fill="#1E45C7"/>
<path opacity="0.2" d="M263.878 34.4247C210.794 2.57404 198.152 -18.0278 220.27 -45.202L780.506 -38.7031L795.673 63.6741C794.41 94.64 735.061 179.388 663.482 186.095C622.084 189.973 591.439 165.24 568.689 131.114C553.631 108.528 545.067 87.1455 516.025 74.238L515.644 74.0684C498.65 66.514 477.642 57.1752 415.544 57.1752C362.46 53.3834 316.963 66.2754 263.878 34.4247Z" fill="#6388FF"/>
<path opacity="0.2" d="M134.056 301.741C168.185 320.699 179.557 383.895 162.495 406.014L-44.1556 417.389L-47.9474 110.258C-47.9474 110.258 30.0861 49.5912 71.4926 89.4029C112.899 129.215 65.4232 172.442 63.9065 201.259C62.0106 237.281 85.88 274.978 134.056 301.741Z" fill="#4871F7"/>
<path opacity="0.2" d="M36.9431 151.966C-16.1414 126.182 -33.6786 32.5263 -14.7199 -9.18288L-5.24055 -64.1632L558.311 -58.4756L760.407 25.1021C736.393 30.7897 673.805 54.8572 566.448 54.8572C500.326 54.8572 455.934 108.361 435.079 142.487C414.225 176.613 384.31 203.155 355.872 205.051C316.874 207.651 295.204 203.155 270.557 170.925C245.911 138.695 228.848 131.112 196.618 129.216C173.113 127.833 144.379 138.695 126.052 157.654C118.721 165.237 90.0275 177.75 36.9431 151.966Z" fill="#1E45C7"/>
<path opacity="0.2" d="M310.372 136.799C336.918 161.445 407.061 157.654 427.916 95.0902C448.77 32.5264 374.411 -48.9962 374.411 -48.9962H186.72L-55.9505 -43.3085C-88.8123 -10.4467 -153.781 67.4105 -74.9122 138.695C23.6732 227.801 78.8603 200.692 84.3427 197.467C116.573 178.509 145.431 151.966 154.91 115.945C164.389 79.9232 206.099 62.8604 249.704 79.9232C272.478 88.835 283.826 112.154 310.372 136.799Z" fill="#6388FF"/>
</g>
</g>
</svg>
