<svg width="756" height="120" viewBox="0 0 756 120" fill="none" xmlns="http://www.w3.org/2000/svg">
<g opacity="0.7">
<mask id="mask0" mask-type="alpha" maskUnits="userSpaceOnUse" x="0" y="0" width="756" height="120">
<rect width="756" height="120" rx="6" fill="#02C7C7"/>
</mask>
<g mask="url(#mask0)">
<mask id="mask1" mask-type="alpha" maskUnits="userSpaceOnUse" x="0" y="0" width="756" height="331">
<rect width="756" height="330.437" fill="#C4C4C4"/>
</mask>
<g mask="url(#mask1)">
<path opacity="0.1" d="M548.833 82.4204C598.884 64.2296 737.265 82.4191 760.228 177.285L809.517 446.358L207.576 468.975C79.2881 436.762 -152.261 371.579 -52.1591 368.547C72.9685 364.757 36.9469 268.119 135.532 215.063C214.401 172.618 256.006 227.253 279.619 249.17C306.158 273.804 373.654 357.178 431.289 326.86C488.923 296.542 471.099 201.799 482.477 156.322C490.058 129.794 498.782 100.611 548.833 82.4204Z" fill="#C96500"/>
<path opacity="0.1" d="M263.879 10.4187C210.794 -21.415 198.152 -42.006 220.271 -69.1657L780.507 -62.6703L795.674 39.6526C794.41 70.6021 735.062 155.306 663.483 162.008C622.084 165.885 591.44 141.165 568.689 107.057C553.632 84.4832 545.067 63.1116 516.026 50.211L515.644 50.0414C498.65 42.491 477.643 33.1572 415.545 33.1572C362.46 29.3674 316.963 42.2525 263.879 10.4187Z" fill="#FFBB78"/>
<path opacity="0.1" d="M134.055 277.594C168.184 296.542 179.556 359.705 162.493 381.811L-44.1567 393.181L-47.9485 86.2119C-47.9485 86.2119 30.085 25.5777 71.4915 65.3683C112.898 105.159 65.4221 148.363 63.9054 177.166C62.0095 213.168 85.8789 250.845 134.055 277.594Z" fill="#FFBB78"/>
<path opacity="0.1" d="M36.9438 127.898C-16.1406 102.128 -33.6779 8.52164 -14.7192 -33.1655L-5.23982 -88.1167L558.311 -82.432L760.408 1.10134C736.393 6.78595 673.806 30.8407 566.449 30.8407C500.326 30.8407 455.935 84.3164 435.08 118.424C414.225 152.532 384.31 179.06 355.872 180.955C316.874 183.553 295.204 179.06 270.558 146.847C245.912 114.634 228.849 107.055 196.619 105.16C173.114 103.778 144.379 114.634 126.053 133.583C118.722 141.162 90.0282 153.669 36.9438 127.898Z" fill="#C96500"/>
<path opacity="0.1" d="M310.372 112.74C336.918 137.372 407.061 133.583 427.916 71.0526C448.77 8.52188 374.411 -72.9575 374.411 -72.9575H186.72L-55.9504 -67.2729C-88.8122 -34.4285 -153.78 43.3875 -74.9121 114.635C23.6733 203.693 78.8603 176.599 84.3428 173.375C116.573 154.427 145.431 127.899 154.91 91.8961C164.389 55.8936 206.099 38.8398 249.704 55.8936C272.478 64.8006 283.826 88.107 310.372 112.74Z" fill="#FFDFB1"/>
</g>
</g>
</g>
</svg>
